<svg width="16" height="16" viewBox="0 0 16 16" fill="none" xmlns="http://www.w3.org/2000/svg">
<path d="M2 14H14M9.18961 3.54114C9.18961 3.54114 9.18961 4.63089 10.2794 5.72064C11.3691 6.81039 12.4589 6.81039 12.4589 6.81039M4.87975 11.992L7.16823 11.6651C7.49833 11.618 7.80424 11.465 8.04003 11.2292L13.5486 5.72064C14.1505 5.11879 14.1505 4.14299 13.5486 3.54114L12.4589 2.45139C11.857 1.84954 10.8812 1.84954 10.2794 2.45139L4.77078 7.95997C4.53499 8.19576 4.38203 8.50167 4.33488 8.83177L4.00795 11.1202C3.9353 11.6288 4.3712 12.0647 4.87975 11.992Z" stroke="#6C7275" stroke-width="1.5" stroke-linecap="round"/>
</svg>
