<svg width="20" height="21" viewBox="0 0 20 21" fill="none" xmlns="http://www.w3.org/2000/svg">
<path d="M17.3001 7.59144C17.3001 7.74977 17.2418 7.90811 17.1168 8.03311C16.8751 8.27477 16.4751 8.27477 16.2334 8.03311L12.0584 3.85811C11.8168 3.61644 11.8168 3.21644 12.0584 2.97477C12.3001 2.7331 12.7001 2.7331 12.9418 2.97477L17.1168 7.14977C17.2334 7.27477 17.3001 7.43311 17.3001 7.59144Z" fill="#949D9E"/>
<path d="M13.1167 3.41683V17.5835C13.1167 17.9252 12.8334 18.2085 12.4917 18.2085C12.15 18.2085 11.8667 17.9252 11.8667 17.5835L11.8667 3.41683C11.8667 3.07516 12.15 2.79183 12.4917 2.79183C12.8334 2.79183 13.1167 3.07516 13.1167 3.41683Z" fill="#949D9E"/>
<path d="M8.13337 17.5831C8.13337 17.7415 8.07503 17.8998 7.95003 18.0248C7.70837 18.2665 7.30837 18.2665 7.0667 18.0248L2.8917 13.8498C2.65003 13.6081 2.65003 13.2081 2.8917 12.9665C3.13337 12.7248 3.53337 12.7248 3.77503 12.9665L7.95003 17.1415C8.0667 17.2581 8.13337 17.4248 8.13337 17.5831Z" fill="#949D9E"/>
<path d="M8.1333 3.41683V17.5835C8.1333 17.9252 7.84997 18.2085 7.5083 18.2085C7.16663 18.2085 6.8833 17.9252 6.8833 17.5835L6.8833 3.41683C6.8833 3.07516 7.16663 2.79183 7.5083 2.79183C7.84997 2.79183 8.1333 3.07516 8.1333 3.41683Z" fill="#949D9E"/>
</svg>
