<svg width="21" height="20" viewBox="0 0 21 20" fill="none" xmlns="http://www.w3.org/2000/svg">
<g clip-path="url(#clip0_15_14545)">
<path d="M10.8884 8.18176V12.0545H16.2702C16.0339 13.2999 15.3247 14.3545 14.2611 15.0636L17.5065 17.5818C19.3975 15.8364 20.4884 13.2728 20.4884 10.2273C20.4884 9.51824 20.4248 8.83636 20.3065 8.18187L10.8884 8.18176Z" fill="#4285F4"/>
<path d="M5.2841 11.9033L4.55213 12.4636L1.96118 14.4818C3.60663 17.7454 6.97911 20 10.8882 20C13.5881 20 15.8517 19.1091 17.5063 17.5818L14.2609 15.0636C13.3699 15.6636 12.2336 16.0273 10.8882 16.0273C8.28818 16.0273 6.07916 14.2728 5.28819 11.9091L5.2841 11.9033Z" fill="#34A853"/>
<path d="M1.9612 5.51819C1.27942 6.86359 0.88855 8.38179 0.88855 9.99994C0.88855 11.6181 1.27942 13.1363 1.9612 14.4817C1.9612 14.4907 5.28853 11.8999 5.28853 11.8999C5.08853 11.2999 4.97031 10.6636 4.97031 9.99984C4.97031 9.33612 5.08853 8.69979 5.28853 8.0998L1.9612 5.51819Z" fill="#FBBC05"/>
<path d="M10.8884 3.98182C12.3611 3.98182 13.6702 4.49089 14.7156 5.47272L17.5793 2.60912C15.8429 0.990971 13.5884 0 10.8884 0C6.97931 0 3.60663 2.24545 1.96118 5.51819L5.28841 8.10001C6.07927 5.73635 8.28839 3.98182 10.8884 3.98182Z" fill="#EA4335"/>
</g>
<defs>
<clipPath id="clip0_15_14545">
<rect width="20" height="20" fill="white" transform="translate(0.88855)"/>
</clipPath>
</defs>
</svg>
