<svg width="20" height="20" viewBox="0 0 20 20" fill="none" xmlns="http://www.w3.org/2000/svg">
<path d="M10.0167 17.1083C8.07499 17.1083 6.13333 16.8 4.29166 16.1833C3.59166 15.9417 3.05833 15.45 2.82499 14.8083C2.58333 14.1667 2.66666 13.4583 3.04999 12.825L4.00833 11.2333C4.20833 10.9 4.39166 10.2333 4.39166 9.84168V7.43335C4.39166 4.33335 6.91666 1.80835 10.0167 1.80835C13.1167 1.80835 15.6417 4.33335 15.6417 7.43335V9.84168C15.6417 10.225 15.825 10.9 16.025 11.2417L16.975 12.825C17.3333 13.425 17.4 14.15 17.1583 14.8083C16.9167 15.4667 16.3917 15.9667 15.7333 16.1833C13.9 16.8 11.9583 17.1083 10.0167 17.1083ZM10.0167 3.05835C7.60833 3.05835 5.64166 5.01668 5.64166 7.43335V9.84168C5.64166 10.45 5.39166 11.35 5.08333 11.875L4.12499 13.4667C3.94166 13.775 3.89166 14.1 3.99999 14.375C4.09999 14.6583 4.34999 14.875 4.69166 14.9917C8.17499 16.1583 11.8667 16.1583 15.35 14.9917C15.65 14.8917 15.8833 14.6667 15.9917 14.3667C16.1 14.0667 16.075 13.7417 15.9083 13.4667L14.95 11.875C14.6333 11.3333 14.3917 10.4417 14.3917 9.83335V7.43335C14.3917 5.01668 12.4333 3.05835 10.0167 3.05835Z" fill="#1B5E37"/>
<path d="M11.5667 3.28328C11.5083 3.28328 11.45 3.27494 11.3917 3.25828C11.15 3.19161 10.9167 3.14161 10.6917 3.10828C9.98333 3.01661 9.29999 3.06661 8.65833 3.25828C8.42499 3.33328 8.17499 3.25828 8.01666 3.08328C7.85833 2.90828 7.80833 2.65828 7.89999 2.43328C8.24166 1.55828 9.07499 0.983276 10.025 0.983276C10.975 0.983276 11.8083 1.54994 12.15 2.43328C12.2333 2.65828 12.1917 2.90828 12.0333 3.08328C11.9083 3.21661 11.7333 3.28328 11.5667 3.28328Z" fill="#1B5E37"/>
<path d="M10.0167 19.0083C9.19166 19.0083 8.39166 18.675 7.80833 18.0916C7.225 17.5083 6.89166 16.7083 6.89166 15.8833H8.14166C8.14166 16.375 8.34166 16.8583 8.69166 17.2083C9.04166 17.5583 9.525 17.7583 10.0167 17.7583C11.05 17.7583 11.8917 16.9166 11.8917 15.8833H13.1417C13.1417 17.6083 11.7417 19.0083 10.0167 19.0083Z" fill="#1B5E37"/>
</svg>
