<svg width="374" height="156" viewBox="0 0 374 156" fill="none" xmlns="http://www.w3.org/2000/svg">
<path d="M309.465 16.99C309.467 17.5832 309.267 18.1634 308.891 18.6573C308.515 19.1513 307.979 19.5366 307.352 19.7647C306.725 19.9927 306.034 20.0532 305.368 19.9384C304.701 19.8236 304.088 19.5388 303.607 19.1199C303.126 18.701 302.798 18.167 302.665 17.5853C302.532 17.0037 302.6 16.4006 302.859 15.8525C303.119 15.3043 303.559 14.8358 304.124 14.5061C304.688 14.1764 305.352 14.0004 306.032 14.0004C306.941 14.0004 307.813 14.3151 308.456 14.8756C309.1 15.436 309.463 16.1964 309.465 16.99Z" fill="#60D290"/>
<path d="M225.832 21.2125C225.83 21.8034 225.627 22.3807 225.25 22.8713C224.873 23.362 224.337 23.7439 223.711 23.969C223.086 24.1941 222.397 24.2522 221.734 24.136C221.07 24.0198 220.461 23.7345 219.983 23.316C219.505 22.8976 219.179 22.3649 219.048 21.7852C218.916 21.2055 218.985 20.6048 219.244 20.0589C219.504 19.5131 219.943 19.0466 220.506 18.7185C221.068 18.3903 221.73 18.2152 222.407 18.2151C222.858 18.2151 223.304 18.2927 223.72 18.4435C224.136 18.5942 224.514 18.8151 224.832 19.0935C225.15 19.3719 225.402 19.7024 225.573 20.066C225.745 20.4296 225.833 20.8192 225.832 21.2125Z" fill="#60D290"/>
<path d="M182.082 59.754C182.083 60.3472 181.884 60.9274 181.507 61.4214C181.131 61.9153 180.596 62.3007 179.968 62.5287C179.341 62.7567 178.651 62.8172 177.984 62.7024C177.318 62.5876 176.705 62.3028 176.224 61.8839C175.743 61.465 175.415 60.931 175.282 60.3493C175.149 59.7677 175.216 59.1646 175.476 58.6165C175.735 58.0684 176.175 57.5998 176.74 57.2701C177.305 56.9404 177.969 56.7644 178.648 56.7644C179.099 56.7634 179.545 56.84 179.962 56.9898C180.378 57.1396 180.757 57.3596 181.076 57.6373C181.395 57.915 181.648 58.245 181.82 58.6082C181.993 58.9714 182.082 59.3608 182.082 59.754Z" fill="#60D290"/>
<path d="M10.057 153.01C10.057 153.602 9.85616 154.18 9.47988 154.671C9.1036 155.163 8.56877 155.546 7.94304 155.772C7.31731 155.999 6.62877 156.058 5.96449 155.943C5.30022 155.827 4.69004 155.542 4.21113 155.124C3.73221 154.706 3.40606 154.174 3.27393 153.594C3.1418 153.014 3.20961 152.413 3.4688 151.866C3.72799 151.32 4.16691 150.853 4.73005 150.525C5.2932 150.196 5.95528 150.021 6.63256 150.021C7.54006 150.023 8.40973 150.338 9.05143 150.899C9.69313 151.459 10.0547 152.218 10.057 153.01Z" fill="#60D290"/>
<path d="M70.5229 2.98963C70.5229 3.58092 70.322 4.15893 69.9458 4.65058C69.5695 5.14222 69.0347 5.5254 68.4089 5.75168C67.7832 5.97796 67.0946 6.03717 66.4304 5.92181C65.7661 5.80645 65.1559 5.52172 64.677 5.10361C64.1981 4.68551 63.8719 4.15281 63.7398 3.57288C63.6077 2.99294 63.6755 2.39183 63.9347 1.84555C64.1939 1.29926 64.6328 0.832349 65.1959 0.503845C65.7591 0.17534 66.4212 0 67.0984 0C68.0059 0.00203409 68.8756 0.317666 69.5173 0.87789C70.159 1.43811 70.5205 2.19736 70.5229 2.98963Z" fill="#60D290"/>
<path d="M374 152.232C374.002 152.826 373.802 153.406 373.425 153.9C373.048 154.394 372.512 154.78 371.885 155.008C371.257 155.235 370.566 155.295 369.899 155.18C369.232 155.065 368.62 154.779 368.139 154.359C367.658 153.94 367.331 153.405 367.199 152.823C367.067 152.241 367.136 151.637 367.396 151.089C367.657 150.541 368.099 150.073 368.665 149.744C369.231 149.416 369.896 149.241 370.576 149.243C371.483 149.245 372.353 149.56 372.994 150.12C373.636 150.681 373.998 151.44 374 152.232Z" fill="#60D290"/>
<path d="M270.658 80.2576C268.877 80.2591 267.136 79.7995 265.654 78.9368C264.173 78.0741 263.017 76.8472 262.335 75.4112C261.652 73.9753 261.472 72.3948 261.819 70.8697C262.165 69.3447 263.022 67.9435 264.28 66.8436C265.539 65.7437 267.143 64.9944 268.89 64.6905C270.636 64.3866 272.447 64.5418 274.092 65.1365C275.738 65.7311 277.144 66.7384 278.134 68.0311C279.123 69.3237 279.652 70.8435 279.652 72.3983C279.647 74.4801 278.698 76.4756 277.013 77.9484C275.327 79.4213 273.043 80.2515 270.658 80.2576ZM270.658 65.7872C269.16 65.7872 267.696 66.1749 266.451 66.9014C265.206 67.6278 264.235 68.6603 263.662 69.8683C263.089 71.0763 262.939 72.4056 263.231 73.688C263.523 74.9705 264.244 76.1484 265.303 77.073C266.362 77.9976 267.712 78.6272 269.181 78.8823C270.65 79.1374 272.172 79.0065 273.556 78.5061C274.94 78.0057 276.122 77.1584 276.954 76.0712C277.787 74.984 278.231 73.7058 278.231 72.3983C278.232 71.5291 278.037 70.6682 277.657 69.8648C277.277 69.0614 276.72 68.3312 276.016 67.7158C275.313 67.1005 274.478 66.6121 273.559 66.2785C272.639 65.945 271.654 65.7728 270.658 65.7718V65.7872Z" fill="#60D290"/>
<path d="M4.00238 39.3198C2.22188 39.3198 0.48136 38.8588 -0.999073 37.9952C-2.47951 37.1316 -3.63336 35.9042 -4.31473 34.4681C-4.9961 33.032 -5.17438 31.4517 -4.82702 29.9272C-4.47966 28.4026 -3.62227 27.0022 -2.36326 25.9031C-1.10426 24.8039 0.499813 24.0554 2.2461 23.7521C3.99239 23.4489 5.80247 23.6045 7.44744 24.1994C9.09241 24.7942 10.4984 25.8016 11.4876 27.094C12.4768 28.3865 13.0048 29.906 13.0048 31.4604C13.0024 33.5442 12.0532 35.5421 10.3654 37.0156C8.67767 38.489 6.38924 39.3177 4.00238 39.3198ZM4.00238 24.8494C2.50466 24.8494 1.04058 25.2371 -0.204724 25.9635C-1.45003 26.69 -2.42063 27.7225 -2.99378 28.9305C-3.56693 30.1385 -3.71689 31.4678 -3.4247 32.7502C-3.13251 34.0326 -2.41129 35.2106 -1.35225 36.1352C-0.293202 37.0598 1.0561 37.6894 2.52504 37.9445C3.99398 38.1996 5.51657 38.0687 6.90028 37.5683C8.28399 37.0679 9.46667 36.2205 10.2988 35.1334C11.1308 34.0462 11.575 32.768 11.575 31.4604C11.5726 29.7077 10.7741 28.0273 9.35443 26.7879C7.9348 25.5486 6.01004 24.8514 4.00238 24.8494Z" fill="#60D290"/>
<path d="M364.23 58.7138C362.449 58.7153 360.707 58.2557 359.226 57.393C357.744 56.5304 356.589 55.3034 355.906 53.8675C355.224 52.4315 355.044 50.851 355.39 49.3259C355.737 47.8009 356.593 46.3997 357.852 45.2998C359.111 44.1999 360.715 43.4506 362.461 43.1467C364.208 42.8429 366.018 42.998 367.664 43.5927C369.309 44.1873 370.716 45.1946 371.705 46.4873C372.695 47.7799 373.223 49.2997 373.223 50.8545C373.221 52.9369 372.273 54.9336 370.587 56.4069C368.901 57.8801 366.615 58.7097 364.23 58.7138ZM364.23 44.2434C362.729 44.2419 361.262 44.629 360.014 45.3557C358.766 46.0823 357.793 47.116 357.218 48.3257C356.643 49.5355 356.492 50.8669 356.785 52.1516C357.077 53.4362 357.799 54.6163 358.86 55.5424C359.921 56.4685 361.273 57.099 362.744 57.3542C364.215 57.6093 365.741 57.4776 367.126 56.9757C368.512 56.4738 369.696 55.6242 370.528 54.5346C371.361 53.4449 371.804 52.1642 371.802 50.8545C371.8 49.1017 371.001 47.4214 369.582 46.182C368.162 44.9426 366.237 44.2454 364.23 44.2434Z" fill="#60D290"/>
<path d="M139.356 32.701C137.574 32.7025 135.833 32.2426 134.351 31.3796C132.869 30.5166 131.714 29.2892 131.032 27.8528C130.349 26.4164 130.17 24.8355 130.517 23.3102C130.864 21.785 131.722 20.3839 132.981 19.2842C134.241 18.1846 135.846 17.436 137.593 17.1329C139.34 16.8299 141.151 16.9862 142.796 17.582C144.441 18.1778 145.847 19.1864 146.836 20.48C147.824 21.7737 148.351 23.2943 148.349 24.8493C148.347 26.9311 147.399 28.927 145.713 30.399C144.026 31.871 141.74 32.6989 139.356 32.701ZM139.356 18.2383C137.858 18.2383 136.394 18.626 135.149 19.3524C133.903 20.0789 132.933 21.1114 132.36 22.3194C131.786 23.5274 131.636 24.8567 131.929 26.1391C132.221 27.4215 132.942 28.5995 134.001 29.5241C135.06 30.4487 136.409 31.0783 137.878 31.3334C139.347 31.5885 140.87 31.4576 142.254 30.9572C143.637 30.4568 144.82 29.6094 145.652 28.5223C146.484 27.4351 146.928 26.1569 146.928 24.8493C146.926 23.0966 146.127 21.4162 144.708 20.1768C143.288 18.9375 141.363 18.2403 139.356 18.2383Z" fill="#60D290"/>
</svg>
