<svg width="21" height="20" viewBox="0 0 21 20" fill="none" xmlns="http://www.w3.org/2000/svg">
<path d="M18.0001 5.60839C17.9834 5.60839 17.9584 5.60839 17.9334 5.60839C13.5251 5.16673 9.12505 5.00006 4.76672 5.44173L3.06672 5.60839C2.71672 5.64173 2.40839 5.39173 2.37505 5.04173C2.34172 4.69173 2.59172 4.39173 2.93339 4.35839L4.63339 4.19173C9.06672 3.74173 13.5584 3.91673 18.0584 4.35839C18.4001 4.39173 18.6501 4.70006 18.6167 5.04173C18.5917 5.36673 18.3167 5.60839 18.0001 5.60839Z" fill="#949D9E"/>
<path d="M7.58338 4.7665C7.55005 4.7665 7.51672 4.7665 7.47505 4.75817C7.14172 4.69984 6.90838 4.37484 6.96672 4.0415L7.15005 2.94984C7.28338 2.14984 7.46671 1.0415 9.40838 1.0415H11.5917C13.5417 1.0415 13.725 2.1915 13.85 2.95817L14.0334 4.0415C14.0917 4.38317 13.8584 4.70817 13.525 4.75817C13.1834 4.8165 12.8584 4.58317 12.8084 4.24984L12.625 3.1665C12.5084 2.4415 12.4834 2.29984 11.6 2.29984H9.41672C8.53338 2.29984 8.51672 2.4165 8.39172 3.15817L8.20005 4.2415C8.15005 4.54984 7.88338 4.7665 7.58338 4.7665Z" fill="#949D9E"/>
<path d="M13.175 18.9582H7.825C4.91666 18.9582 4.8 17.3498 4.70833 16.0498L4.16666 7.65815C4.14166 7.31649 4.40833 7.01649 4.75 6.99149C5.1 6.97482 5.39166 7.23315 5.41666 7.57482L5.95833 15.9665C6.05 17.2332 6.08333 17.7082 7.825 17.7082H13.175C14.925 17.7082 14.9583 17.2332 15.0417 15.9665L15.5833 7.57482C15.6083 7.23315 15.9083 6.97482 16.25 6.99149C16.5917 7.01649 16.8583 7.30815 16.8333 7.65815L16.2917 16.0498C16.2 17.3498 16.0833 18.9582 13.175 18.9582Z" fill="#949D9E"/>
<path d="M11.8833 14.375H9.10828C8.76661 14.375 8.48328 14.0917 8.48328 13.75C8.48328 13.4083 8.76661 13.125 9.10828 13.125H11.8833C12.2249 13.125 12.5083 13.4083 12.5083 13.75C12.5083 14.0917 12.2249 14.375 11.8833 14.375Z" fill="#949D9E"/>
<path d="M12.5833 11.0415H8.41663C8.07496 11.0415 7.79163 10.7582 7.79163 10.4165C7.79163 10.0748 8.07496 9.7915 8.41663 9.7915H12.5833C12.925 9.7915 13.2083 10.0748 13.2083 10.4165C13.2083 10.7582 12.925 11.0415 12.5833 11.0415Z" fill="#949D9E"/>
</svg>
