<svg width="16" height="16" viewBox="0 0 16 16" fill="none" xmlns="http://www.w3.org/2000/svg">
<path d="M8 12.5C7.72667 12.5 7.5 12.2733 7.5 12V10C7.5 9.72667 7.72667 9.5 8 9.5C8.27333 9.5 8.5 9.72667 8.5 10V12C8.5 12.2733 8.27333 12.5 8 12.5Z" fill="#4E5556"/>
<path d="M11.7333 15.0402H4.26664C3.05331 15.0402 1.94664 14.1069 1.74664 12.9135L0.859974 7.60021C0.713307 6.77354 1.11997 5.71354 1.77997 5.18687L6.39997 1.48687C7.29331 0.766874 8.69997 0.77354 9.59997 1.49354L14.22 5.18687C14.8733 5.71354 15.2733 6.77354 15.14 7.60021L14.2533 12.9069C14.0533 14.0869 12.92 15.0402 11.7333 15.0402ZM7.99331 1.95354C7.63997 1.95354 7.28664 2.06021 7.02664 2.26687L2.40664 5.97354C2.03331 6.27354 1.76664 6.96687 1.84664 7.44021L2.73331 12.7469C2.85331 13.4469 3.55331 14.0402 4.26664 14.0402H11.7333C12.4466 14.0402 13.1466 13.4469 13.2666 12.7402L14.1533 7.43354C14.2266 6.96687 13.96 6.26021 13.5933 5.96687L8.97331 2.27354C8.70664 2.06021 8.34664 1.95354 7.99331 1.95354Z" fill="#4E5556"/>
</svg>
