<svg width="16" height="16" viewBox="0 0 16 16" fill="none" xmlns="http://www.w3.org/2000/svg">
<path d="M13.18 7.49992H10.4867C9.14667 7.49992 8.5 6.90659 8.5 5.67992V2.65325C8.5 1.42659 9.15333 0.833252 10.4867 0.833252H13.18C14.52 0.833252 15.1667 1.42659 15.1667 2.65325V5.67325C15.1667 6.90659 14.5133 7.49992 13.18 7.49992ZM10.4867 1.83325C9.59333 1.83325 9.5 2.08659 9.5 2.65325V5.67325C9.5 6.24658 9.59333 6.49325 10.4867 6.49325H13.18C14.0733 6.49325 14.1667 6.23992 14.1667 5.67325V2.65325C14.1667 2.07992 14.0733 1.83325 13.18 1.83325H10.4867Z" fill="#4E5556"/>
<path d="M13.18 15.1667H10.4867C9.14667 15.1667 8.5 14.5133 8.5 13.18V10.4867C8.5 9.14667 9.15333 8.5 10.4867 8.5H13.18C14.52 8.5 15.1667 9.15333 15.1667 10.4867V13.18C15.1667 14.5133 14.5133 15.1667 13.18 15.1667ZM10.4867 9.5C9.7 9.5 9.5 9.7 9.5 10.4867V13.18C9.5 13.9667 9.7 14.1667 10.4867 14.1667H13.18C13.9667 14.1667 14.1667 13.9667 14.1667 13.18V10.4867C14.1667 9.7 13.9667 9.5 13.18 9.5H10.4867Z" fill="#4E5556"/>
<path d="M5.51331 7.49992H2.81998C1.47998 7.49992 0.833313 6.90659 0.833313 5.67992V2.65325C0.833313 1.42659 1.48665 0.833252 2.81998 0.833252H5.51331C6.85331 0.833252 7.49998 1.42659 7.49998 2.65325V5.67325C7.49998 6.90659 6.84665 7.49992 5.51331 7.49992ZM2.81998 1.83325C1.92665 1.83325 1.83331 2.08659 1.83331 2.65325V5.67325C1.83331 6.24658 1.92665 6.49325 2.81998 6.49325H5.51331C6.40665 6.49325 6.49998 6.23992 6.49998 5.67325V2.65325C6.49998 2.07992 6.40665 1.83325 5.51331 1.83325H2.81998Z" fill="#4E5556"/>
<path d="M5.51331 15.1667H2.81998C1.47998 15.1667 0.833313 14.5133 0.833313 13.18V10.4867C0.833313 9.14667 1.48665 8.5 2.81998 8.5H5.51331C6.85331 8.5 7.49998 9.15333 7.49998 10.4867V13.18C7.49998 14.5133 6.84665 15.1667 5.51331 15.1667ZM2.81998 9.5C2.03331 9.5 1.83331 9.7 1.83331 10.4867V13.18C1.83331 13.9667 2.03331 14.1667 2.81998 14.1667H5.51331C6.29998 14.1667 6.49998 13.9667 6.49998 13.18V10.4867C6.49998 9.7 6.29998 9.5 5.51331 9.5H2.81998Z" fill="#4E5556"/>
</svg>
