<svg width="16" height="16" viewBox="0 0 16 16" fill="none" xmlns="http://www.w3.org/2000/svg">
<path d="M12.1266 11.8333H5.02664C4.36664 11.8333 3.73331 11.5533 3.28664 11.0666C2.83997 10.5799 2.61331 9.92658 2.66665 9.26658L3.21998 2.62659C3.23998 2.41992 3.16664 2.21992 3.02664 2.06659C2.88664 1.91326 2.69331 1.83325 2.48664 1.83325H1.33331C1.05998 1.83325 0.833313 1.60659 0.833313 1.33325C0.833313 1.05992 1.05998 0.833252 1.33331 0.833252H2.49332C2.97998 0.833252 3.43998 1.03992 3.76664 1.39325C3.94664 1.59325 4.07998 1.82659 4.15331 2.08659H12.48C13.1533 2.08659 13.7733 2.35325 14.2266 2.83325C14.6733 3.31992 14.9 3.95325 14.8466 4.62659L14.4866 9.62659C14.4133 10.8466 13.3466 11.8333 12.1266 11.8333ZM4.18665 3.07992L3.66665 9.34658C3.63331 9.73324 3.75998 10.0999 4.01998 10.3866C4.27998 10.6732 4.63998 10.8266 5.02664 10.8266H12.1266C12.82 10.8266 13.4466 10.2399 13.5 9.54659L13.86 4.54659C13.8866 4.15326 13.76 3.77993 13.5 3.50659C13.24 3.22659 12.88 3.07324 12.4866 3.07324H4.18665V3.07992Z" fill="#4E5556"/>
<path d="M10.8333 15.1667C10.1 15.1667 9.5 14.5667 9.5 13.8333C9.5 13.1 10.1 12.5 10.8333 12.5C11.5667 12.5 12.1667 13.1 12.1667 13.8333C12.1667 14.5667 11.5667 15.1667 10.8333 15.1667ZM10.8333 13.5C10.6467 13.5 10.5 13.6467 10.5 13.8333C10.5 14.02 10.6467 14.1667 10.8333 14.1667C11.02 14.1667 11.1667 14.02 11.1667 13.8333C11.1667 13.6467 11.02 13.5 10.8333 13.5Z" fill="#4E5556"/>
<path d="M5.50002 15.1667C4.76669 15.1667 4.16669 14.5667 4.16669 13.8333C4.16669 13.1 4.76669 12.5 5.50002 12.5C6.23335 12.5 6.83335 13.1 6.83335 13.8333C6.83335 14.5667 6.23335 15.1667 5.50002 15.1667ZM5.50002 13.5C5.31335 13.5 5.16669 13.6467 5.16669 13.8333C5.16669 14.02 5.31335 14.1667 5.50002 14.1667C5.68669 14.1667 5.83335 14.02 5.83335 13.8333C5.83335 13.6467 5.68669 13.5 5.50002 13.5Z" fill="#4E5556"/>
<path d="M14 5.83325H6C5.72667 5.83325 5.5 5.60659 5.5 5.33325C5.5 5.05992 5.72667 4.83325 6 4.83325H14C14.2733 4.83325 14.5 5.05992 14.5 5.33325C14.5 5.60659 14.2733 5.83325 14 5.83325Z" fill="#4E5556"/>
</svg>
