<svg width="16" height="16" viewBox="0 0 16 16" fill="none" xmlns="http://www.w3.org/2000/svg">
<path d="M13.8867 5.33993L9.52002 1.8466C8.66668 1.1666 7.33335 1.15993 6.48668 1.83993L2.12002 5.33993C1.49335 5.83993 1.11335 6.83993 1.24668 7.6266L2.08668 12.6533C2.28002 13.7799 3.32668 14.6666 4.46668 14.6666H11.5333C12.66 14.6666 13.7267 13.7599 13.92 12.6466L14.76 7.61993C14.88 6.83993 14.5 5.83993 13.8867 5.33993ZM8.50002 11.9999C8.50002 12.2733 8.27335 12.4999 8.00002 12.4999C7.72668 12.4999 7.50002 12.2733 7.50002 11.9999V9.99993C7.50002 9.7266 7.72668 9.49993 8.00002 9.49993C8.27335 9.49993 8.50002 9.7266 8.50002 9.99993V11.9999Z" fill="white"/>
</svg>
