<svg width="16" height="16" viewBox="0 0 16 16" fill="none" xmlns="http://www.w3.org/2000/svg">
<path d="M14.6667 5.68016V2.6535C14.6667 1.7135 14.24 1.3335 13.18 1.3335H10.4867C9.42667 1.3335 9 1.7135 9 2.6535V5.6735C9 6.62016 9.42667 6.9935 10.4867 6.9935H13.18C14.24 7.00016 14.6667 6.62016 14.6667 5.68016Z" fill="white"/>
<path d="M14.6667 13.18V10.4867C14.6667 9.42667 14.24 9 13.18 9H10.4867C9.42667 9 9 9.42667 9 10.4867V13.18C9 14.24 9.42667 14.6667 10.4867 14.6667H13.18C14.24 14.6667 14.6667 14.24 14.6667 13.18Z" fill="white"/>
<path d="M7.00004 5.68016V2.6535C7.00004 1.7135 6.57337 1.3335 5.51337 1.3335H2.82004C1.76004 1.3335 1.33337 1.7135 1.33337 2.6535V5.6735C1.33337 6.62016 1.76004 6.9935 2.82004 6.9935H5.51337C6.57337 7.00016 7.00004 6.62016 7.00004 5.68016Z" fill="white"/>
<path d="M7.00004 13.18V10.4867C7.00004 9.42667 6.57337 9 5.51337 9H2.82004C1.76004 9 1.33337 9.42667 1.33337 10.4867V13.18C1.33337 14.24 1.76004 14.6667 2.82004 14.6667H5.51337C6.57337 14.6667 7.00004 14.24 7.00004 13.18Z" fill="white"/>
</svg>
