<svg width="16" height="16" viewBox="0 0 16 16" fill="none" xmlns="http://www.w3.org/2000/svg">
<path d="M10.8333 14.9998C11.4776 14.9998 12 14.4775 12 13.8332C12 13.1888 11.4776 12.6665 10.8333 12.6665C10.189 12.6665 9.66663 13.1888 9.66663 13.8332C9.66663 14.4775 10.189 14.9998 10.8333 14.9998Z" fill="white"/>
<path d="M5.50004 14.9998C6.14437 14.9998 6.66671 14.4775 6.66671 13.8332C6.66671 13.1888 6.14437 12.6665 5.50004 12.6665C4.85571 12.6665 4.33337 13.1888 4.33337 13.8332C4.33337 14.4775 4.85571 14.9998 5.50004 14.9998Z" fill="white"/>
<path d="M3.22671 2.62683L3.09337 4.26016C3.06671 4.5735 3.31337 4.8335 3.62671 4.8335H13.8334C14.1134 4.8335 14.3467 4.62016 14.3667 4.34016C14.4534 3.16016 13.5534 2.20016 12.3734 2.20016H4.18004C4.11337 1.90683 3.98004 1.62683 3.77337 1.3935C3.44004 1.04016 2.97337 0.833496 2.49337 0.833496H1.33337C1.06004 0.833496 0.833374 1.06016 0.833374 1.3335C0.833374 1.60683 1.06004 1.8335 1.33337 1.8335H2.49337C2.70004 1.8335 2.89337 1.92016 3.03337 2.06683C3.17337 2.22016 3.24004 2.42016 3.22671 2.62683Z" fill="white"/>
<path d="M13.6733 5.8335H3.44666C3.16666 5.8335 2.93999 6.04683 2.91333 6.32016L2.67333 9.22016C2.57999 10.3602 3.47333 11.3335 4.61333 11.3335H12.0267C13.0267 11.3335 13.9067 10.5135 13.98 9.5135L14.2 6.40016C14.2267 6.0935 13.9867 5.8335 13.6733 5.8335Z" fill="white"/>
</svg>
